<svg xmlns="http://www.w3.org/2000/svg" width="256" height="256" viewBox="0 0 16 16" fill="#171717"><g fill="none"><g clip-path="url(#gravityUiAbbrSql0)"><path fill="#171717" fill-rule="evenodd" d="M13.5 4.75a.75.75 0 0 0-1.5 0v6.5c0 .414.336.75.75.75h2.5a.75.75 0 0 0 0-1.5H13.5zM11 8c0 1.32-.257 2.314-.709 2.98l.99.99a.75.75 0 1 1-1.061 1.06l-1.132-1.132a2.43 2.43 0 0 1-.713.102C6.8 12 5.75 10.667 5.75 8S6.8 4 8.375 4S11 5.333 11 8m-1.957 2.15c.222-.322.457-.98.457-2.149c0-1.168-.235-1.826-.457-2.149c-.175-.254-.366-.35-.668-.35c-.302 0-.493.096-.668.35c-.222.323-.457.981-.457 2.15c0 1.167.235 1.826.457 2.148c.175.254.366.351.668.351c.302 0 .493-.097.668-.351M2.562 4.002c-.689 0-1.285.249-1.702.713C.453 5.17.277 5.76.277 6.352c0 .732.326 1.28.759 1.658c.41.358.908.561 1.305.684c.398.122.684.217.89.372c.147.113.27.266.27.625c0 .29-.109.469-.253.589a1.08 1.08 0 0 1-.686.222c-.202 0-.438-.093-.658-.293a1.391 1.391 0 0 1-.423-.684a.75.75 0 1 0-1.462.333c.127.557.453 1.079.878 1.463c.426.386 1.006.681 1.665.681c.578 0 1.177-.18 1.647-.57c.485-.405.791-1.006.791-1.74c0-.843-.352-1.433-.864-1.82c-.434-.33-.962-.492-1.306-.597l-.047-.015c-.31-.095-.579-.221-.76-.38a.65.65 0 0 1-.246-.528c0-.304.09-.512.2-.635c.099-.11.27-.215.585-.215c.322 0 .498.099.612.206c.13.123.233.313.3.56a.75.75 0 1 0 1.449-.386c-.113-.42-.325-.892-.719-1.263c-.409-.387-.961-.617-1.642-.617" clip-rule="evenodd"/></g><defs><clipPath id="gravityUiAbbrSql0"><path fill="#171717" d="M0 0h16v16H0z"/></clipPath></defs></g></svg>