<svg xmlns="http://www.w3.org/2000/svg" width="512" height="512" viewBox="0 0 24 24" fill="#fffafa"><g fill="none" stroke="#fffafa" stroke-linecap="round" stroke-linejoin="round" stroke-width="1.5" color="currentColor"><path d="m7 8l2.942 1.74c1.715 1.014 2.4 1.014 4.116 0L17 8"/><path d="M21.984 12.976c.021-.986.021-1.966 0-2.952c-.065-3.065-.098-4.598-1.229-5.733c-1.131-1.136-2.705-1.175-5.854-1.254a115 115 0 0 0-5.802 0c-3.149.079-4.723.118-5.854 1.254c-1.131 1.135-1.164 2.668-1.23 5.733a69 69 0 0 0 0 2.952c.066 3.065.099 4.598 1.23 5.733c1.131 1.136 2.705 1.175 5.854 1.254c1.305.033 2.601.044 3.901.033"/><path d="m18.5 14l.258.697c.338.914.507 1.371.84 1.704c.334.334.791.503 1.705.841L22 17.5l-.697.258c-.914.338-1.371.507-1.704.84c-.334.334-.503.791-.841 1.705L18.5 21l-.258-.697c-.338-.914-.507-1.371-.84-1.704c-.334-.334-.791-.503-1.705-.841L15 17.5l.697-.258c.914-.338 1.371-.507 1.704-.84c.334-.334.503-.791.841-1.705z"/></g></svg>