<svg xmlns="http://www.w3.org/2000/svg" width="256" height="256" viewBox="0 0 24 24" fill="#171717"><g fill="none" stroke="#171717" stroke-linecap="round" stroke-linejoin="round" stroke-width="1.5" color="currentColor"><path d="M11.5 6C7.022 6 4.782 6 3.391 7.172S2 10.229 2 14s0 5.657 1.391 6.828S7.021 22 11.5 22c4.478 0 6.718 0 8.109-1.172S21 17.771 21 14c0-1.17 0-2.158-.041-3M18.5 2l.258.697c.338.914.507 1.371.84 1.704c.334.334.791.503 1.705.841L22 5.5l-.697.258c-.914.338-1.371.507-1.704.84c-.334.334-.503.791-.841 1.705L18.5 9l-.258-.697c-.338-.914-.507-1.371-.84-1.704c-.334-.334-.791-.503-1.705-.841L15 5.5l.697-.258c.914-.338 1.371-.507 1.704-.84c.334-.334.503-.791.841-1.705z"/><path d="m15.5 12l1.227 1.057c.515.445.773.667.773.943s-.258.498-.773.943L15.5 16m-8-4l-1.227 1.057c-.515.445-.773.667-.773.943s.258.498.773.943L7.5 16m5-5l-2 6"/></g></svg>